<?xml version="1.0" encoding="iso-8859-1"?>
<!-- Generator: Adobe Illustrator 16.0.0, SVG Export Plug-In . SVG Version: 6.00 Build 0)  -->
<!DOCTYPE svg PUBLIC "-//W3C//DTD SVG 1.1//EN" "http://www.w3.org/Graphics/SVG/1.1/DTD/svg11.dtd">
<svg version="1.1" id="Capa_1" xmlns="http://www.w3.org/2000/svg" xmlns:xlink="http://www.w3.org/1999/xlink" x="0px" y="0px"
	 width="87.859px" height="87.859px" viewBox="0 0 87.859 87.859" style="enable-background:new 0 0 87.859 87.859;"
	 xml:space="preserve">
<g>
	<g id="Add_1_">
		<g>
			<path d="M43.93,0C19.706,0,0,19.705,0,43.93c0,24.224,19.706,43.929,43.93,43.929S87.859,68.154,87.859,43.93
				C87.859,19.705,68.154,0,43.93,0z M43.93,79.872c-19.819,0-35.942-16.123-35.942-35.942c0-19.813,16.123-35.943,35.942-35.943
				c19.82,0,35.943,16.13,35.943,35.943C79.873,63.749,63.75,79.872,43.93,79.872z M47.923,27.963h-7.986V39.94h-11.98v7.986h11.979
				v11.983h7.986V47.926h11.98V39.94h-11.98L47.923,27.963L47.923,27.963z"/>
		</g>
	</g>
</g>
<g>
</g>
<g>
</g>
<g>
</g>
<g>
</g>
<g>
</g>
<g>
</g>
<g>
</g>
<g>
</g>
<g>
</g>
<g>
</g>
<g>
</g>
<g>
</g>
<g>
</g>
<g>
</g>
<g>
</g>
</svg>
