<?xml version="1.0" encoding="iso-8859-1"?>
<!-- Generator: Adobe Illustrator 16.0.0, SVG Export Plug-In . SVG Version: 6.00 Build 0)  -->
<!DOCTYPE svg PUBLIC "-//W3C//DTD SVG 1.1//EN" "http://www.w3.org/Graphics/SVG/1.1/DTD/svg11.dtd">
<svg version="1.1" id="Capa_1" xmlns="http://www.w3.org/2000/svg" xmlns:xlink="http://www.w3.org/1999/xlink" x="0px" y="0px"
	 width="87.859px" height="87.859px" viewBox="0 0 87.859 87.859" style="enable-background:new 0 0 87.859 87.859;"
	 xml:space="preserve">
<g>
	<g id="N_x2F_A_1_">
		<g>
			<path d="M43.93,0C19.705,0,0,19.705,0,43.93c0,24.224,19.705,43.929,43.93,43.929c24.224,0,43.929-19.705,43.929-43.929
				C87.859,19.705,68.152,0,43.93,0z M7.986,43.93c0-8.487,2.965-16.294,7.905-22.451l50.489,50.49
				c-6.155,4.938-13.962,7.903-22.451,7.903C24.109,79.872,7.986,63.749,7.986,43.93z M71.975,66.374L21.484,15.887
				c6.156-4.937,13.959-7.9,22.445-7.9c19.819,0,35.942,16.13,35.942,35.943C79.872,52.416,76.91,60.219,71.975,66.374z"/>
		</g>
	</g>
</g>
<g>
</g>
<g>
</g>
<g>
</g>
<g>
</g>
<g>
</g>
<g>
</g>
<g>
</g>
<g>
</g>
<g>
</g>
<g>
</g>
<g>
</g>
<g>
</g>
<g>
</g>
<g>
</g>
<g>
</g>
</svg>
