<?xml version="1.0" encoding="iso-8859-1"?>
<!-- Generator: Adobe Illustrator 16.0.0, SVG Export Plug-In . SVG Version: 6.00 Build 0)  -->
<!DOCTYPE svg PUBLIC "-//W3C//DTD SVG 1.1//EN" "http://www.w3.org/Graphics/SVG/1.1/DTD/svg11.dtd">
<svg version="1.1" id="Capa_1" xmlns="http://www.w3.org/2000/svg" xmlns:xlink="http://www.w3.org/1999/xlink" x="0px" y="0px"
	 width="79.736px" height="79.736px" viewBox="0 0 79.736 79.736" style="enable-background:new 0 0 79.736 79.736;"
	 xml:space="preserve">
<g>
	<g id="Confirm">
		<g>
			<path d="M77.48,19.875L67.343,9.586c-2.854-2.896-7.769-2.959-10.554-0.135L33.358,33.224L22.947,22.656
				c-2.789-2.824-7.7-2.76-10.553,0.144L2.249,33.089c-2.946,2.988-3.003,7.793-0.136,10.703l25.901,26.283
				c1.452,1.474,3.371,2.288,5.402,2.288c1.956,0,3.782-0.758,5.151-2.146l39.051-39.633c1.368-1.387,2.124-3.238,2.119-5.227
				C79.736,23.301,78.937,21.349,77.48,19.875z M33.426,64.893h-0.011l-13.077-13.17L7.458,38.373L17.739,27.94l13.016,13.214
				c1.38,1.4,3.826,1.4,5.206,0L62.138,14.87l10.274,10.433L33.426,64.893z"/>
		</g>
	</g>
</g>
<g>
</g>
<g>
</g>
<g>
</g>
<g>
</g>
<g>
</g>
<g>
</g>
<g>
</g>
<g>
</g>
<g>
</g>
<g>
</g>
<g>
</g>
<g>
</g>
<g>
</g>
<g>
</g>
<g>
</g>
</svg>
