<?xml version="1.0" encoding="iso-8859-1"?>
<!-- Generator: Adobe Illustrator 16.0.0, SVG Export Plug-In . SVG Version: 6.00 Build 0)  -->
<!DOCTYPE svg PUBLIC "-//W3C//DTD SVG 1.1//EN" "http://www.w3.org/Graphics/SVG/1.1/DTD/svg11.dtd">
<svg version="1.1" id="Capa_1" xmlns="http://www.w3.org/2000/svg" xmlns:xlink="http://www.w3.org/1999/xlink" x="0px" y="0px"
	 width="87.859px" height="87.859px" viewBox="0 0 87.859 87.859" style="enable-background:new 0 0 87.859 87.859;"
	 xml:space="preserve">
<g>
	<g id="Compass">
		<g>
			<path d="M43.93,0C19.705,0,0,19.706,0,43.93c0,24.225,19.705,43.929,43.93,43.929c24.224,0,43.929-19.704,43.929-43.929
				C87.859,19.706,68.152,0,43.93,0z M43.93,79.873c-19.82,0-35.943-16.124-35.943-35.943c0-19.812,16.123-35.943,35.943-35.943
				c19.819,0,35.942,16.131,35.942,35.943C79.872,63.749,63.749,79.873,43.93,79.873z M52.398,46.754L59.459,28.4l-18.354,7.058
				L52.398,46.754z M28.399,59.46l18.354-7.058L35.449,41.105L28.399,59.46z"/>
		</g>
	</g>
</g>
<g>
</g>
<g>
</g>
<g>
</g>
<g>
</g>
<g>
</g>
<g>
</g>
<g>
</g>
<g>
</g>
<g>
</g>
<g>
</g>
<g>
</g>
<g>
</g>
<g>
</g>
<g>
</g>
<g>
</g>
</svg>
