<?xml version="1.0" encoding="iso-8859-1"?>
<!-- Generator: Adobe Illustrator 16.0.0, SVG Export Plug-In . SVG Version: 6.00 Build 0)  -->
<!DOCTYPE svg PUBLIC "-//W3C//DTD SVG 1.1//EN" "http://www.w3.org/Graphics/SVG/1.1/DTD/svg11.dtd">
<svg version="1.1" id="Capa_1" xmlns="http://www.w3.org/2000/svg" xmlns:xlink="http://www.w3.org/1999/xlink" x="0px" y="0px"
	 width="87.859px" height="87.859px" viewBox="0 0 87.859 87.859" style="enable-background:new 0 0 87.859 87.859;"
	 xml:space="preserve">
<g>
	<g id="Close">
		<g>
			<path d="M43.93,0C19.705,0,0,19.705,0,43.93c0,24.224,19.705,43.929,43.93,43.929c24.224,0,43.929-19.705,43.929-43.929
				C87.859,19.705,68.154,0,43.93,0z M43.93,79.872c-19.82,0-35.943-16.123-35.943-35.942c0-19.813,16.123-35.943,35.943-35.943
				c19.819,0,35.943,16.13,35.943,35.943C79.873,63.749,63.749,79.872,43.93,79.872z M58.047,35.686l-5.584-5.592l-8.385,8.387
				l-8.385-8.387l-5.592,5.592l8.385,8.387l-8.385,8.387l5.584,5.592l8.389-8.391l8.389,8.391l5.592-5.592l-8.389-8.392
				L58.047,35.686z"/>
		</g>
	</g>
</g>
<g>
</g>
<g>
</g>
<g>
</g>
<g>
</g>
<g>
</g>
<g>
</g>
<g>
</g>
<g>
</g>
<g>
</g>
<g>
</g>
<g>
</g>
<g>
</g>
<g>
</g>
<g>
</g>
<g>
</g>
</svg>
