<?xml version="1.0" encoding="iso-8859-1"?>
<!-- Generator: Adobe Illustrator 16.0.0, SVG Export Plug-In . SVG Version: 6.00 Build 0)  -->
<!DOCTYPE svg PUBLIC "-//W3C//DTD SVG 1.1//EN" "http://www.w3.org/Graphics/SVG/1.1/DTD/svg11.dtd">
<svg version="1.1" id="Capa_1" xmlns="http://www.w3.org/2000/svg" xmlns:xlink="http://www.w3.org/1999/xlink" x="0px" y="0px"
	 width="80.539px" height="80.539px" viewBox="0 0 80.539 80.539" style="enable-background:new 0 0 80.539 80.539;"
	 xml:space="preserve">
<g>
	<g id="Moon_1_">
		<g>
			<path d="M79.137,29.865c-0.41-1.544-1.773-2.638-3.367-2.717c-1.603-0.121-3.051,0.895-3.604,2.381
				c-2.388,6.428-8.583,10.74-15.423,10.74c-9.084,0-16.473-7.387-16.473-16.475c0-6.835,4.318-13.034,10.743-15.422
				c1.493-0.558,2.455-2.01,2.381-3.604c-0.078-1.595-1.177-2.953-2.713-3.361C47.188,0.472,43.688,0,40.27,0
				C18.064,0,0,18.068,0,40.27c0,22.207,18.064,40.269,40.27,40.269c22.205,0,40.269-18.062,40.269-40.269
				C80.538,36.852,80.066,33.348,79.137,29.865z M40.27,73.216c-18.169,0-32.947-14.778-32.947-32.946
				c0-17.947,14.421-32.59,32.289-32.94c-4.172,4.347-6.664,10.225-6.664,16.466c0,13.121,10.675,23.796,23.795,23.796
				c6.241,0,12.118-2.488,16.467-6.657C72.855,58.795,58.216,73.216,40.27,73.216z"/>
		</g>
	</g>
</g>
<g>
</g>
<g>
</g>
<g>
</g>
<g>
</g>
<g>
</g>
<g>
</g>
<g>
</g>
<g>
</g>
<g>
</g>
<g>
</g>
<g>
</g>
<g>
</g>
<g>
</g>
<g>
</g>
<g>
</g>
</svg>
