<?xml version="1.0" encoding="iso-8859-1"?>
<!-- Generator: Adobe Illustrator 16.0.0, SVG Export Plug-In . SVG Version: 6.00 Build 0)  -->
<!DOCTYPE svg PUBLIC "-//W3C//DTD SVG 1.1//EN" "http://www.w3.org/Graphics/SVG/1.1/DTD/svg11.dtd">
<svg version="1.1" id="Capa_1" xmlns="http://www.w3.org/2000/svg" xmlns:xlink="http://www.w3.org/1999/xlink" x="0px" y="0px"
	 width="84.039px" height="84.04px" viewBox="0 0 84.039 84.04" style="enable-background:new 0 0 84.039 84.04;"
	 xml:space="preserve">
<g>
	<g id="Decline_1_">
		<g>
			<path d="M81.921,60.982L62.823,41.834L81.66,23.072c1.404-1.401,2.181-3.36,2.127-5.377c-0.05-1.959-0.854-3.818-2.26-5.227
				L71.371,2.28c-1.405-1.409-3.257-2.21-5.412-2.267c-1.959,0-3.793,0.758-5.13,2.095c0,0-10.654,10.439-18.948,18.712
				L23.255,2.152c-1.362-1.38-3.354-2.237-5.363-2.138c-1.944,0.05-3.796,0.851-5.219,2.267L2.506,12.469
				c-1.401,1.416-2.202,3.275-2.245,5.213c-0.057,2.037,0.694,3.946,2.152,5.42c0.007,0,9.316,9.087,18.89,18.64L2.127,60.975
				c-1.408,1.401-2.184,3.367-2.124,5.355c0.043,1.966,0.844,3.832,2.252,5.248l10.164,10.194c1.409,1.402,3.26,2.203,5.409,2.253
				c1.959,0,3.79-0.751,5.159-2.124l18.894-18.946L61.05,81.902c1.369,1.373,3.203,2.131,5.162,2.131h0.193
				c1.959-0.057,3.812-0.856,5.216-2.267l10.153-10.182c1.4-1.395,2.206-3.253,2.263-5.248
				C84.088,64.299,83.333,62.398,81.921,60.982z M66.405,76.541c-0.075,0.07-0.146,0.093-0.179,0.093L44.452,55.111
				c-0.719-0.715-1.655-1.064-2.588-1.064c-0.944,0-1.891,0.357-2.61,1.08L17.628,76.533L7.336,66.208l21.793-21.857
				c1.441-1.444,1.441-3.782,0-5.227C18.68,28.644,7.562,17.796,7.732,17.695L18.029,7.372l21.239,21.293
				c1.441,1.443,3.775,1.443,5.216,0c8.4-8.423,21.393-21.15,21.672-21.15L76.46,17.825l-21.462,21.37
				c-0.692,0.693-1.086,1.638-1.09,2.617c0,0.986,0.39,1.93,1.083,2.624l21.572,21.915L66.405,76.541z"/>
		</g>
	</g>
</g>
<g>
</g>
<g>
</g>
<g>
</g>
<g>
</g>
<g>
</g>
<g>
</g>
<g>
</g>
<g>
</g>
<g>
</g>
<g>
</g>
<g>
</g>
<g>
</g>
<g>
</g>
<g>
</g>
<g>
</g>
</svg>
