<?xml version="1.0" encoding="iso-8859-1"?>
<!-- Generator: Adobe Illustrator 16.0.0, SVG Export Plug-In . SVG Version: 6.00 Build 0)  -->
<!DOCTYPE svg PUBLIC "-//W3C//DTD SVG 1.1//EN" "http://www.w3.org/Graphics/SVG/1.1/DTD/svg11.dtd">
<svg version="1.1" id="Capa_1" xmlns="http://www.w3.org/2000/svg" xmlns:xlink="http://www.w3.org/1999/xlink" x="0px" y="0px"
	 width="84.198px" height="84.198px" viewBox="0 0 84.198 84.198" style="enable-background:new 0 0 84.198 84.198;"
	 xml:space="preserve">
<g>
	<g id="Save">
		<g>
			<path d="M56.742,49.42H45.76V0h-7.321v49.42H27.456l14.643,16.475L56.742,49.42z M81.746,30.022
				c-0.395-0.872-0.951-1.659-1.645-2.31c-0.681-0.65-1.48-1.166-2.379-1.53c-0.91-0.372-1.877-0.558-2.869-0.558H58.477v7.322
				h16.569v42.099l-0.192,1.83H9.151l0.193-43.929h16.377v-7.322H9.345c-0.994,0-1.959,0.186-2.877,0.558
				c-0.895,0.364-1.688,0.88-2.36,1.516c-0.704,0.665-1.262,1.452-1.666,2.353c-0.408,0.915-0.612,1.894-0.612,2.896v43.929
				c0,1.009,0.204,1.981,0.622,2.925c0.394,0.879,0.951,1.666,1.641,2.316c0.688,0.65,1.48,1.166,2.381,1.529
				c0.912,0.364,1.877,0.552,2.871,0.552h65.508c0.994,0,1.959-0.188,2.883-0.558c0.886-0.357,1.687-0.873,2.355-1.51
				c0.703-0.665,1.262-1.451,1.666-2.354c0.403-0.922,0.61-1.895,0.61-2.902V32.947C82.368,31.945,82.161,30.966,81.746,30.022z"/>
		</g>
	</g>
</g>
<g>
</g>
<g>
</g>
<g>
</g>
<g>
</g>
<g>
</g>
<g>
</g>
<g>
</g>
<g>
</g>
<g>
</g>
<g>
</g>
<g>
</g>
<g>
</g>
<g>
</g>
<g>
</g>
<g>
</g>
</svg>
