<?xml version="1.0" encoding="iso-8859-1"?>
<!-- Generator: Adobe Illustrator 16.0.0, SVG Export Plug-In . SVG Version: 6.00 Build 0)  -->
<!DOCTYPE svg PUBLIC "-//W3C//DTD SVG 1.1//EN" "http://www.w3.org/Graphics/SVG/1.1/DTD/svg11.dtd">
<svg version="1.1" id="Capa_1" xmlns="http://www.w3.org/2000/svg" xmlns:xlink="http://www.w3.org/1999/xlink" x="0px" y="0px"
	 width="80.048px" height="80.048px" viewBox="0 0 80.048 80.048" style="enable-background:new 0 0 80.048 80.048;"
	 xml:space="preserve">
<g>
	<g id="Star_2_">
		<g>
			<path d="M79.871,30.705c-0.479-1.495-1.862-2.503-3.425-2.503H51.235l-7.79-24.053c-0.482-1.487-1.862-2.495-3.424-2.495
				s-2.942,1.008-3.425,2.495l-7.79,24.053H3.599c-1.559,0-2.942,1.008-3.422,2.495c-0.482,1.487,0.043,3.125,1.305,4.04
				l20.393,14.872l-7.783,24.061c-0.482,1.486,0.047,3.116,1.305,4.031c0.637,0.465,1.377,0.693,2.117,0.693
				c0.743,0,1.483-0.229,2.116-0.693l20.392-14.865l20.396,14.865c1.267,0.923,2.975,0.923,4.232,0
				c1.263-0.915,1.791-2.553,1.309-4.031l-7.79-24.061l20.396-14.872C79.824,33.822,80.354,32.184,79.871,30.705z M51.817,45.312
				c-1.262,0.914-1.787,2.545-1.309,4.031l5.178,15.979l-13.55-9.873c-0.634-0.465-1.377-0.694-2.117-0.694
				c-0.744,0-1.487,0.229-2.116,0.694l-13.546,9.874l5.173-15.979c0.479-1.487-0.046-3.118-1.309-4.032l-13.546-9.882h16.746
				c1.559,0,2.941-1.008,3.421-2.503l5.177-15.973l5.173,15.973c0.481,1.495,1.866,2.503,3.425,2.503h16.753L51.817,45.312z"/>
		</g>
	</g>
</g>
<g>
</g>
<g>
</g>
<g>
</g>
<g>
</g>
<g>
</g>
<g>
</g>
<g>
</g>
<g>
</g>
<g>
</g>
<g>
</g>
<g>
</g>
<g>
</g>
<g>
</g>
<g>
</g>
<g>
</g>
</svg>
