<?xml version="1.0" encoding="iso-8859-1"?>
<!-- Generator: Adobe Illustrator 16.0.0, SVG Export Plug-In . SVG Version: 6.00 Build 0)  -->
<!DOCTYPE svg PUBLIC "-//W3C//DTD SVG 1.1//EN" "http://www.w3.org/Graphics/SVG/1.1/DTD/svg11.dtd">
<svg version="1.1" id="Capa_1" xmlns="http://www.w3.org/2000/svg" xmlns:xlink="http://www.w3.org/1999/xlink" x="0px" y="0px"
	 width="80.525px" height="80.526px" viewBox="0 0 80.525 80.526" style="enable-background:new 0 0 80.525 80.526;"
	 xml:space="preserve">
<g>
	<g id="Book_1_">
		<g>
			<path d="M72.99,1.825c-0.271,0-0.539,0.028-0.805,0.093L40.262,9.08L8.337,1.917C8.072,1.853,7.801,1.825,7.532,1.825
				C3.307,1.825,0,5.642,0,10.519v52.166c0,4.691,3.061,8.401,7.05,8.681l32.312,7.251c0.264,0.059,0.535,0.085,0.804,0.085
				c0.032,0,0.064-0.008,0.097-0.008c0.033,0,0.064,0.008,0.097,0.008c0.268,0,0.536-0.026,0.804-0.085l32.312-7.251
				c3.988-0.278,7.049-3.988,7.049-8.681V10.519C80.523,5.642,77.213,1.825,72.99,1.825z M36.494,70.465L8.337,64.151
				c-0.118-0.028-0.183-0.036-0.239-0.036c-0.072,0-0.137,0.015-0.286,0.015c-0.126-0.093-0.472-0.593-0.472-1.445V10.519
				c0-0.637,0.196-1.087,0.229-1.272l28.926,6.492L36.494,70.465L36.494,70.465z M73.184,62.684c0,0.853-0.347,1.353-0.192,1.373
				c-0.271,0-0.539,0.029-0.804,0.094l-28.16,6.312V15.739l28.839-6.472c0.146,0.229,0.317,0.658,0.317,1.252V62.684z"/>
		</g>
	</g>
</g>
<g>
</g>
<g>
</g>
<g>
</g>
<g>
</g>
<g>
</g>
<g>
</g>
<g>
</g>
<g>
</g>
<g>
</g>
<g>
</g>
<g>
</g>
<g>
</g>
<g>
</g>
<g>
</g>
<g>
</g>
</svg>
