<?xml version="1.0" encoding="iso-8859-1"?>
<!-- Generator: Adobe Illustrator 16.0.0, SVG Export Plug-In . SVG Version: 6.00 Build 0)  -->
<!DOCTYPE svg PUBLIC "-//W3C//DTD SVG 1.1//EN" "http://www.w3.org/Graphics/SVG/1.1/DTD/svg11.dtd">
<svg version="1.1" id="Capa_1" xmlns="http://www.w3.org/2000/svg" xmlns:xlink="http://www.w3.org/1999/xlink" x="0px" y="0px"
	 width="79.971px" height="79.971px" viewBox="0 0 79.971 79.971" style="enable-background:new 0 0 79.971 79.971;"
	 xml:space="preserve">
<g>
	<g id="Heart_1_">
		<g>
			<path d="M79.949,25.096C79.874,13.098,70.136,3.36,58.174,3.36c-7.594,0-14.293,3.933-18.19,9.867
				C36.09,7.293,29.388,3.36,21.794,3.36c-11.959,0-21.697,9.738-21.773,21.736c-0.164,2.66-0.332,25.168,37.685,50.694
				c0.65,0.521,1.469,0.821,2.327,0.821c0.969,0,1.873-0.379,2.534-1.028C80.28,50.143,80.112,27.749,79.949,25.096z M39.979,68.532
				C6.204,45.172,7.262,25.747,7.271,25.596c0.011-0.121,0.019-0.242,0.019-0.364c0-8.044,6.506-14.586,14.504-14.586
				c7.997,0,14.5,6.542,14.5,14.586c0,2.03,1.619,3.604,3.689,3.64c2.005-0.015,3.692-1.609,3.692-3.64
				c0-8.044,6.503-14.586,14.497-14.586c8.001,0,14.507,6.542,14.521,14.907C72.709,25.747,73.768,45.172,39.979,68.532z"/>
		</g>
	</g>
</g>
<g>
</g>
<g>
</g>
<g>
</g>
<g>
</g>
<g>
</g>
<g>
</g>
<g>
</g>
<g>
</g>
<g>
</g>
<g>
</g>
<g>
</g>
<g>
</g>
<g>
</g>
<g>
</g>
<g>
</g>
</svg>
