<?xml version="1.0" encoding="UTF-8" standalone="no"?>
<!-- Generator: Adobe Illustrator 16.0.0, SVG Export Plug-In . SVG Version: 6.00 Build 0)  -->

<svg
   xmlns:dc="http://purl.org/dc/elements/1.1/"
   xmlns:cc="http://creativecommons.org/ns#"
   xmlns:rdf="http://www.w3.org/1999/02/22-rdf-syntax-ns#"
   xmlns:svg="http://www.w3.org/2000/svg"
   xmlns="http://www.w3.org/2000/svg"
   xmlns:sodipodi="http://sodipodi.sourceforge.net/DTD/sodipodi-0.dtd"
   xmlns:inkscape="http://www.inkscape.org/namespaces/inkscape"
   version="1.1"
   id="Capa_1"
   x="0px"
   y="0px"
   width="87.859px"
   height="87.859px"
   viewBox="0 0 87.859 87.859"
   style="enable-background:new 0 0 87.859 87.859;"
   xml:space="preserve"
   inkscape:version="0.91 r13725"
   sodipodi:docname="info-circular-button.svg"><metadata
     id="metadata44"><rdf:RDF><cc:Work
         rdf:about=""><dc:format>image/svg+xml</dc:format><dc:type
           rdf:resource="http://purl.org/dc/dcmitype/StillImage" /></cc:Work></rdf:RDF></metadata><defs
     id="defs42" /><sodipodi:namedview
     pagecolor="#ffffff"
     bordercolor="#666666"
     borderopacity="1"
     objecttolerance="10"
     gridtolerance="10"
     guidetolerance="10"
     inkscape:pageopacity="0"
     inkscape:pageshadow="2"
     inkscape:window-width="1600"
     inkscape:window-height="837"
     id="namedview40"
     showgrid="false"
     showguides="false"
     inkscape:zoom="8"
     inkscape:cx="46.465849"
     inkscape:cy="33.981486"
     inkscape:window-x="-8"
     inkscape:window-y="-8"
     inkscape:window-maximized="1"
     inkscape:current-layer="Add_1_" /><g
     id="g3"><g
       id="Add_1_"><g
         id="g6"><path
           d="M 43.93,0 C 19.706,0 0,19.705 0,43.93 0,68.154 19.706,87.859 43.93,87.859 68.154,87.859 87.859,68.154 87.859,43.93 87.859,19.705 68.154,0 43.93,0 Z m 0,79.872 C 24.111,79.872 7.988,63.749 7.988,43.93 7.988,24.117 24.111,7.987 43.93,7.987 c 19.82,0 35.943,16.13 35.943,35.943 0,19.819 -16.123,35.942 -35.943,35.942 z m 3.993,-45.162605 -7.986,0 -10e-4,25.199605 7.986,0 c 0.001,-31.946 -0.131567,-4.48935 0.001,-25.199605 z"
           id="path8"
           inkscape:connector-curvature="0"
           sodipodi:nodetypes="ssssssssssccccc" /></g><rect
         style="opacity:0.63095236;fill:#000000;fill-opacity:1;fill-rule:evenodd;stroke:none;stroke-opacity:1"
         id="rect4174"
         width="7.9866142"
         height="7.9889998"
         x="39.625"
         y="23.745001" /></g></g><g
     id="g10" /><g
     id="g12" /><g
     id="g14" /><g
     id="g16" /><g
     id="g18" /><g
     id="g20" /><g
     id="g22" /><g
     id="g24" /><g
     id="g26" /><g
     id="g28" /><g
     id="g30" /><g
     id="g32" /><g
     id="g34" /><g
     id="g36" /><g
     id="g38" /></svg>