<?xml version="1.0" encoding="iso-8859-1"?>
<!-- Generator: Adobe Illustrator 16.0.0, SVG Export Plug-In . SVG Version: 6.00 Build 0)  -->
<!DOCTYPE svg PUBLIC "-//W3C//DTD SVG 1.1//EN" "http://www.w3.org/Graphics/SVG/1.1/DTD/svg11.dtd">
<svg version="1.1" id="Capa_1" xmlns="http://www.w3.org/2000/svg" xmlns:xlink="http://www.w3.org/1999/xlink" x="0px" y="0px"
	 width="84.191px" height="84.191px" viewBox="0 0 84.191 84.191" style="enable-background:new 0 0 84.191 84.191;"
	 xml:space="preserve">
<g>
	<g id="Drop">
		<g>
			<path d="M44.683,1.072C43.995,0.386,43.069,0,42.097,0c-0.969,0-1.895,0.386-2.581,1.072
				c-26.191,26.297-25.25,48.998-25.043,51.63c0.09,14.894,11.873,31.489,27.624,31.489c15.229,0,27.617-12.441,27.603-27.406
				C69.804,55.641,71.916,28.428,44.683,1.072z M62.41,56.456c0,11.247-9.108,20.399-20.313,20.399
				c-11.254,0-20.32-13.308-20.32-24.325c0-0.114-0.007-0.25-0.018-0.364C21.74,51.959,20.192,32.468,42.09,8.951
				C64.079,32.818,62.442,55.912,62.41,56.456z"/>
		</g>
	</g>
</g>
<g>
</g>
<g>
</g>
<g>
</g>
<g>
</g>
<g>
</g>
<g>
</g>
<g>
</g>
<g>
</g>
<g>
</g>
<g>
</g>
<g>
</g>
<g>
</g>
<g>
</g>
<g>
</g>
<g>
</g>
</svg>
