<?xml version="1.0" encoding="iso-8859-1"?>
<!-- Generator: Adobe Illustrator 16.0.0, SVG Export Plug-In . SVG Version: 6.00 Build 0)  -->
<!DOCTYPE svg PUBLIC "-//W3C//DTD SVG 1.1//EN" "http://www.w3.org/Graphics/SVG/1.1/DTD/svg11.dtd">
<svg version="1.1" id="Capa_1" xmlns="http://www.w3.org/2000/svg" xmlns:xlink="http://www.w3.org/1999/xlink" x="0px" y="0px"
	 width="84.198px" height="84.198px" viewBox="0 0 84.198 84.198" style="enable-background:new 0 0 84.198 84.198;"
	 xml:space="preserve">
<g>
	<g id="Comment">
		<g>
			<path d="M74.853,0H9.344C5.201,0,1.829,3.289,1.829,7.321v54.912c0,4.041,3.372,7.322,7.515,7.322h27.264l9.885,13.185
				c0.689,0.915,1.773,1.459,2.928,1.459c1.15,0,2.238-0.544,2.928-1.459l9.885-13.185h12.621c4.144,0,7.515-3.281,7.515-7.322
				V7.321C82.367,3.289,78.996,0,74.853,0z M74.853,62.232h-14.45c-1.154,0-2.238,0.545-2.929,1.467l-8.055,10.738l-8.055-10.738
				c-0.689-0.922-1.777-1.467-2.928-1.467H9.15L9.344,7.321h65.701L74.853,62.232z M67.724,16.244h-51.25v7.322h51.25V16.244z
				 M67.724,30.888h-51.25v7.321h51.25V30.888z M67.724,45.531h-51.25v7.32h51.25V45.531z"/>
		</g>
	</g>
</g>
<g>
</g>
<g>
</g>
<g>
</g>
<g>
</g>
<g>
</g>
<g>
</g>
<g>
</g>
<g>
</g>
<g>
</g>
<g>
</g>
<g>
</g>
<g>
</g>
<g>
</g>
<g>
</g>
<g>
</g>
</svg>
