<?xml version="1.0" encoding="iso-8859-1"?>
<!-- Generator: Adobe Illustrator 16.0.0, SVG Export Plug-In . SVG Version: 6.00 Build 0)  -->
<!DOCTYPE svg PUBLIC "-//W3C//DTD SVG 1.1//EN" "http://www.w3.org/Graphics/SVG/1.1/DTD/svg11.dtd">
<svg version="1.1" id="Capa_1" xmlns="http://www.w3.org/2000/svg" xmlns:xlink="http://www.w3.org/1999/xlink" x="0px" y="0px"
	 width="84.229px" height="84.229px" viewBox="0 0 84.229 84.229" style="enable-background:new 0 0 84.229 84.229;"
	 xml:space="preserve">
<g>
	<g id="Link">
		<g>
			<path d="M25.322,76.97L7.401,58.771l19.88-19.876c-1.351-1.358-3.164-2.109-5.105-2.109c-2.174-0.028-3.911,0.794-5.355,2.238
				L2.242,53.604c-1.441,1.444-2.238,3.338-2.238,5.355c0,1.938,0.744,3.753,2.102,5.104l18.058,18.062
				c1.355,1.357,3.164,2.104,5.105,2.104h0.003c2.009,0,3.911-0.795,5.349-2.238l14.582-14.58c2.921-2.917,2.98-7.614,0.136-10.46
				L25.322,76.97z M82.122,20.163L64.064,2.103C62.71,0.751,60.896,0,58.96,0h-0.004c-2.013,0-3.911,0.801-5.349,2.237
				L39.025,16.816c-2.921,2.925-2.982,7.615-0.136,10.461L58.902,7.265l17.924,18.196L56.945,45.338
				c1.353,1.352,3.164,2.104,5.103,2.104h0.007c2.01,0,3.911-0.795,5.352-2.238l14.576-14.579c1.443-1.444,2.242-3.339,2.242-5.348
				C84.225,23.33,83.477,21.515,82.122,20.163z M27.052,52.009l5.163,5.162l23.667-23.666l-5.159-5.162L27.052,52.009z"/>
		</g>
	</g>
</g>
<g>
</g>
<g>
</g>
<g>
</g>
<g>
</g>
<g>
</g>
<g>
</g>
<g>
</g>
<g>
</g>
<g>
</g>
<g>
</g>
<g>
</g>
<g>
</g>
<g>
</g>
<g>
</g>
<g>
</g>
</svg>
