<?xml version="1.0" encoding="iso-8859-1"?>
<!-- Generator: Adobe Illustrator 16.0.0, SVG Export Plug-In . SVG Version: 6.00 Build 0)  -->
<!DOCTYPE svg PUBLIC "-//W3C//DTD SVG 1.1//EN" "http://www.w3.org/Graphics/SVG/1.1/DTD/svg11.dtd">
<svg version="1.1" id="Capa_1" xmlns="http://www.w3.org/2000/svg" xmlns:xlink="http://www.w3.org/1999/xlink" x="0px" y="0px"
	 width="91.378px" height="91.378px" viewBox="0 0 91.378 91.378" style="enable-background:new 0 0 91.378 91.378;"
	 xml:space="preserve">
<g>
	<g id="Lock_2_">
		<g>
			<path d="M78.443,24.239H67.346V3.726c0-2.06-1.641-3.726-3.661-3.726H27.077c-2.023,0-3.66,1.666-3.66,3.726V24.24H12.935
				c-4.143-0.001-7.515,3.345-7.515,7.463V83.92c0,4.111,3.372,7.458,7.515,7.458h65.508c4.145,0,7.516-3.347,7.516-7.458V31.703
				C85.958,27.585,82.586,24.239,78.443,24.239z M30.737,7.458h29.286v16.781H30.737V7.458z M78.443,83.92H12.74l0.193-52.217
				h65.701l0.02,52.146C78.654,83.85,78.596,83.92,78.443,83.92z M45.688,46.29c-4.043,0-7.321,3.338-7.321,7.457
				c0,2.759,1.475,5.165,3.661,6.457v8.465h7.321v-8.465c2.188-1.292,3.661-3.698,3.661-6.457
				C53.01,49.628,49.732,46.29,45.688,46.29z"/>
		</g>
	</g>
</g>
<g>
</g>
<g>
</g>
<g>
</g>
<g>
</g>
<g>
</g>
<g>
</g>
<g>
</g>
<g>
</g>
<g>
</g>
<g>
</g>
<g>
</g>
<g>
</g>
<g>
</g>
<g>
</g>
<g>
</g>
</svg>
