<?xml version="1.0" encoding="iso-8859-1"?>
<!-- Generator: Adobe Illustrator 16.0.0, SVG Export Plug-In . SVG Version: 6.00 Build 0)  -->
<!DOCTYPE svg PUBLIC "-//W3C//DTD SVG 1.1//EN" "http://www.w3.org/Graphics/SVG/1.1/DTD/svg11.dtd">
<svg version="1.1" id="Capa_1" xmlns="http://www.w3.org/2000/svg" xmlns:xlink="http://www.w3.org/1999/xlink" x="0px" y="0px"
	 width="80.502px" height="80.502px" viewBox="0 0 80.502 80.502" style="enable-background:new 0 0 80.502 80.502;"
	 xml:space="preserve">
<g>
	<g id="Zoom_Out_1_">
		<g>
			<path d="M58.688,52.744c4.196-5.524,6.695-12.417,6.695-19.887c0.001-18.104-14.664-32.84-32.693-32.84
				C14.665,0.018,0,14.753,0,32.857c0,18.111,14.665,32.848,32.69,32.848c7.643,0,14.675-2.654,20.248-7.086l21.766,21.865
				l5.799-5.826L58.688,52.744z M32.69,58.312c-13.968,0-25.333-11.419-25.333-25.455c0-14.027,11.365-25.446,25.333-25.446
				c13.968,0,25.335,11.418,25.335,25.446C58.025,46.894,46.658,58.312,32.69,58.312z M17.976,36.555h29.428v-7.394H17.976V36.555z"
				/>
		</g>
	</g>
</g>
<g>
</g>
<g>
</g>
<g>
</g>
<g>
</g>
<g>
</g>
<g>
</g>
<g>
</g>
<g>
</g>
<g>
</g>
<g>
</g>
<g>
</g>
<g>
</g>
<g>
</g>
<g>
</g>
<g>
</g>
</svg>
