<?xml version="1.0" encoding="iso-8859-1"?>
<!-- Generator: Adobe Illustrator 16.0.0, SVG Export Plug-In . SVG Version: 6.00 Build 0)  -->
<!DOCTYPE svg PUBLIC "-//W3C//DTD SVG 1.1//EN" "http://www.w3.org/Graphics/SVG/1.1/DTD/svg11.dtd">
<svg version="1.1" id="Capa_1" xmlns="http://www.w3.org/2000/svg" xmlns:xlink="http://www.w3.org/1999/xlink" x="0px" y="0px"
	 width="80.538px" height="80.539px" viewBox="0 0 80.538 80.539" style="enable-background:new 0 0 80.538 80.539;"
	 xml:space="preserve">
<g>
	<g id="Email">
		<g>
			<path d="M73.217,7.322H7.322C3.285,7.322,0,10.611,0,14.643v51.251c0,4.039,3.285,7.322,7.322,7.322h65.895
				c4.035,0,7.321-3.283,7.321-7.322V14.643C80.538,10.611,77.252,7.322,73.217,7.322z M40.27,35.629L13.359,14.643h53.819
				L40.27,35.629z M30.468,37.272L7.322,60.423v-41.2L30.468,37.272z M36.285,41.808l1.731,1.35
				c0.661,0.516,1.459,0.771,2.253,0.771c0.793,0,1.59-0.258,2.252-0.771l1.604-1.25l23.986,23.986H12.204L36.285,41.808z
				 M49.941,37.372l23.274-18.148l0.003,41.426L49.941,37.372z"/>
		</g>
	</g>
</g>
<g>
</g>
<g>
</g>
<g>
</g>
<g>
</g>
<g>
</g>
<g>
</g>
<g>
</g>
<g>
</g>
<g>
</g>
<g>
</g>
<g>
</g>
<g>
</g>
<g>
</g>
<g>
</g>
<g>
</g>
</svg>
