<?xml version="1.0" encoding="iso-8859-1"?>
<!-- Generator: Adobe Illustrator 16.0.0, SVG Export Plug-In . SVG Version: 6.00 Build 0)  -->
<!DOCTYPE svg PUBLIC "-//W3C//DTD SVG 1.1//EN" "http://www.w3.org/Graphics/SVG/1.1/DTD/svg11.dtd">
<svg version="1.1" id="Capa_1" xmlns="http://www.w3.org/2000/svg" xmlns:xlink="http://www.w3.org/1999/xlink" x="0px" y="0px"
	 width="80.523px" height="80.523px" viewBox="0 0 80.523 80.523" style="enable-background:new 0 0 80.523 80.523;"
	 xml:space="preserve">
<g>
	<g id="Magazine">
		<g>
			<path d="M72.991,1.823c-0.272,0-0.54,0.036-0.806,0.093L40.262,9.078L8.337,1.916C8.073,1.859,7.801,1.823,7.529,1.823
				C3.311,1.823,0,5.64,0,10.517v52.166c0,4.69,3.061,8.401,7.05,8.682l32.311,7.25c0.264,0.057,0.532,0.086,0.804,0.086
				c0.032,0,0.064-0.007,0.096-0.008c0.033,0.001,0.064,0.008,0.097,0.008c0.268,0,0.536-0.029,0.805-0.086l32.312-7.25
				c3.988-0.279,7.049-3.99,7.049-8.682V10.517C80.523,5.64,77.213,1.823,72.991,1.823z M36.494,70.464L8.337,64.149
				c-0.114-0.028-0.179-0.036-0.236-0.036c-0.071,0-0.136,0.015-0.286,0.015c-0.129-0.093-0.479-0.593-0.479-1.443V10.517
				c0-0.637,0.2-1.08,0.229-1.273l28.929,6.492V70.464z M73.184,62.683c0,0.853-0.35,1.353-0.191,1.373
				c-0.271,0-0.54,0.028-0.805,0.094l-28.16,6.312V15.736l28.84-6.471c0.146,0.236,0.316,0.658,0.316,1.252V62.683z M29.351,23.33
				l-14.675-3.66v7.321l14.675,3.661V23.33z M29.351,37.973l-14.675-3.661v7.321l14.675,3.66V37.973z M29.351,52.617l-14.675-3.661
				v7.321l14.675,3.661V52.617z M51.266,30.652l14.68-3.661V19.67l-14.68,3.66V30.652z M51.266,45.296l14.68-3.66v-7.322
				l-14.68,3.66V45.296z M51.266,59.938l14.68-3.661v-7.321l-14.68,3.661V59.938z"/>
		</g>
	</g>
</g>
<g>
</g>
<g>
</g>
<g>
</g>
<g>
</g>
<g>
</g>
<g>
</g>
<g>
</g>
<g>
</g>
<g>
</g>
<g>
</g>
<g>
</g>
<g>
</g>
<g>
</g>
<g>
</g>
<g>
</g>
</svg>
