<?xml version="1.0" encoding="iso-8859-1"?>
<!-- Generator: Adobe Illustrator 16.0.0, SVG Export Plug-In . SVG Version: 6.00 Build 0)  -->
<!DOCTYPE svg PUBLIC "-//W3C//DTD SVG 1.1//EN" "http://www.w3.org/Graphics/SVG/1.1/DTD/svg11.dtd">
<svg version="1.1" id="Capa_1" xmlns="http://www.w3.org/2000/svg" xmlns:xlink="http://www.w3.org/1999/xlink" x="0px" y="0px"
	 width="80.539px" height="80.539px" viewBox="0 0 80.539 80.539" style="enable-background:new 0 0 80.539 80.539;"
	 xml:space="preserve">
<g>
	<g id="Camera_2_">
		<g>
			<path d="M73.023,13.167h-7.438V3.814c0-2.066-1.641-3.739-3.66-3.739H43.622c-2.022,0-3.66,1.673-3.66,3.739v9.353H7.515
				C3.372,13.167,0,16.52,0,20.638v52.346c0,4.118,3.372,7.479,7.515,7.479h65.508c4.145,0,7.516-3.361,7.516-7.479V20.638
				C80.538,16.52,77.167,13.167,73.023,13.167z M47.283,7.554h10.982v5.612H47.283V7.554z M73.023,72.984H7.321l0.193-52.346h65.701
				l0.02,52.267C73.234,72.912,73.177,72.984,73.023,72.984z M40.269,29.991c-9.084,0-16.473,7.543-16.473,16.823
				c0,9.272,7.389,16.823,16.473,16.823c9.084,0,16.475-7.551,16.475-16.823C56.743,37.534,49.354,29.991,40.269,29.991z
				 M40.269,56.16c-5.044,0-9.151-4.188-9.151-9.346c0-5.154,4.107-9.352,9.151-9.352c5.045,0,9.152,4.197,9.152,9.352
				C49.421,51.972,45.312,56.16,40.269,56.16z"/>
		</g>
	</g>
</g>
<g>
</g>
<g>
</g>
<g>
</g>
<g>
</g>
<g>
</g>
<g>
</g>
<g>
</g>
<g>
</g>
<g>
</g>
<g>
</g>
<g>
</g>
<g>
</g>
<g>
</g>
<g>
</g>
<g>
</g>
</svg>
