<?xml version="1.0" encoding="iso-8859-1"?>
<!-- Generator: Adobe Illustrator 16.0.0, SVG Export Plug-In . SVG Version: 6.00 Build 0)  -->
<!DOCTYPE svg PUBLIC "-//W3C//DTD SVG 1.1//EN" "http://www.w3.org/Graphics/SVG/1.1/DTD/svg11.dtd">
<svg version="1.1" id="Capa_1" xmlns="http://www.w3.org/2000/svg" xmlns:xlink="http://www.w3.org/1999/xlink" x="0px" y="0px"
	 width="87.86px" height="87.859px" viewBox="0 0 87.86 87.859" style="enable-background:new 0 0 87.86 87.859;"
	 xml:space="preserve">
<g>
	<g id="Quit">
		<g>
			<path d="M47.59,0h-7.322v29.029h7.322V0z M81.035,32.411c-2.026-4.755-4.931-9.016-8.63-12.684
				c-3.704-3.668-8.01-6.543-12.799-8.552l-2.854,6.678c3.919,1.645,7.443,4.004,10.479,7c3.023,3.003,5.402,6.499,7.061,10.389
				c1.717,4.019,2.585,8.294,2.585,12.706c0,4.411-0.868,8.694-2.585,12.713c-1.658,3.882-4.035,7.379-7.057,10.381
				c-3.039,3.004-6.562,5.354-10.482,7c-8.107,3.396-17.518,3.403-25.646,0c-3.926-1.651-7.45-4.004-10.475-7
				c-3.018-2.995-5.395-6.483-7.058-10.39c-1.72-4.01-2.592-8.286-2.592-12.704c0-4.419,0.872-8.694,2.592-12.706
				c1.663-3.903,4.04-7.393,7.062-10.389c3.021-2.996,6.545-5.349,10.471-7l-2.854-6.678c-4.801,2.017-9.105,4.891-12.791,8.552
				c-3.692,3.653-6.596,7.922-8.63,12.684C4.729,37.323,3.661,42.55,3.661,47.948c0,5.397,1.068,10.625,3.171,15.536
				c2.034,4.763,4.938,9.037,8.626,12.685c3.689,3.661,7.994,6.535,12.795,8.56c4.974,2.08,10.246,3.131,15.677,3.131
				c5.438,0,10.713-1.051,15.676-3.139c4.791-2.002,9.096-4.884,12.803-8.552c3.695-3.66,6.6-7.93,8.627-12.685
				c2.1-4.92,3.163-10.146,3.163-15.536C84.198,42.557,83.133,37.33,81.035,32.411z"/>
		</g>
	</g>
</g>
<g>
</g>
<g>
</g>
<g>
</g>
<g>
</g>
<g>
</g>
<g>
</g>
<g>
</g>
<g>
</g>
<g>
</g>
<g>
</g>
<g>
</g>
<g>
</g>
<g>
</g>
<g>
</g>
<g>
</g>
</svg>
