<?xml version="1.0" encoding="iso-8859-1"?>
<!-- Generator: Adobe Illustrator 16.0.0, SVG Export Plug-In . SVG Version: 6.00 Build 0)  -->
<!DOCTYPE svg PUBLIC "-//W3C//DTD SVG 1.1//EN" "http://www.w3.org/Graphics/SVG/1.1/DTD/svg11.dtd">
<svg version="1.1" id="Capa_1" xmlns="http://www.w3.org/2000/svg" xmlns:xlink="http://www.w3.org/1999/xlink" x="0px" y="0px"
	 width="84.199px" height="84.199px" viewBox="0 0 84.199 84.199" style="enable-background:new 0 0 84.199 84.199;"
	 xml:space="preserve">
<g>
	<g id="Trash_Can_2_">
		<g>
			<path d="M71.193,0H13.007C8.863,0,5.492,3.289,5.492,7.322v10.982c0,3.976,3.268,7.211,7.321,7.312c0,0.003,0,0.007,0,0.01
				v51.251c0,4.04,3.371,7.322,7.515,7.322h43.544c4.144,0,7.515-3.282,7.515-7.322V25.626c0-0.003,0-0.007,0-0.01
				c4.055-0.101,7.321-3.336,7.321-7.312V7.322C78.708,3.289,75.337,0,71.193,0z M63.872,76.877H20.136l0.192-51.251h43.737
				l0.018,51.181C64.083,76.807,64.025,76.877,63.872,76.877z M71.193,18.305h-58.38l0.194-10.983h58.379l0.019,10.91
				C71.404,18.232,71.345,18.305,71.193,18.305z M31.118,67.727h7.321V34.778h-7.321V67.727z M45.761,67.727h7.321V34.778h-7.321
				V67.727z"/>
		</g>
	</g>
</g>
<g>
</g>
<g>
</g>
<g>
</g>
<g>
</g>
<g>
</g>
<g>
</g>
<g>
</g>
<g>
</g>
<g>
</g>
<g>
</g>
<g>
</g>
<g>
</g>
<g>
</g>
<g>
</g>
<g>
</g>
</svg>
