<?xml version="1.0" encoding="iso-8859-1"?>
<!-- Generator: Adobe Illustrator 16.0.0, SVG Export Plug-In . SVG Version: 6.00 Build 0)  -->
<!DOCTYPE svg PUBLIC "-//W3C//DTD SVG 1.1//EN" "http://www.w3.org/Graphics/SVG/1.1/DTD/svg11.dtd">
<svg version="1.1" id="Capa_1" xmlns="http://www.w3.org/2000/svg" xmlns:xlink="http://www.w3.org/1999/xlink" x="0px" y="0px"
	 width="80.502px" height="80.502px" viewBox="0 0 80.502 80.502" style="enable-background:new 0 0 80.502 80.502;"
	 xml:space="preserve">
<g>
	<g id="Zoom_1_">
		<g>
			<path d="M80.502,74.658L58.688,52.742c4.193-5.524,6.691-12.416,6.691-19.885c0-18.104-14.664-32.84-32.69-32.84
				S0,14.753,0,32.857c0,18.111,14.664,32.848,32.689,32.848c7.643,0,14.674-2.655,20.247-7.088l21.768,21.867L80.502,74.658z
				 M32.689,58.312c-13.967,0-25.332-11.419-25.332-25.455c0-14.027,11.365-25.446,25.332-25.446
				c13.968,0,25.333,11.419,25.333,25.446C58.021,46.894,46.657,58.312,32.689,58.312z"/>
		</g>
	</g>
</g>
<g>
</g>
<g>
</g>
<g>
</g>
<g>
</g>
<g>
</g>
<g>
</g>
<g>
</g>
<g>
</g>
<g>
</g>
<g>
</g>
<g>
</g>
<g>
</g>
<g>
</g>
<g>
</g>
<g>
</g>
</svg>
