<?xml version="1.0" encoding="iso-8859-1"?>
<!-- Generator: Adobe Illustrator 16.0.0, SVG Export Plug-In . SVG Version: 6.00 Build 0)  -->
<!DOCTYPE svg PUBLIC "-//W3C//DTD SVG 1.1//EN" "http://www.w3.org/Graphics/SVG/1.1/DTD/svg11.dtd">
<svg version="1.1" id="Capa_1" xmlns="http://www.w3.org/2000/svg" xmlns:xlink="http://www.w3.org/1999/xlink" x="0px" y="0px"
	 width="76.649px" height="76.649px" viewBox="0 0 76.649 76.649" style="enable-background:new 0 0 76.649 76.649;"
	 xml:space="preserve">
<g>
	<g id="Volume_Off_1_">
		<g>
			<path d="M63.91,0.395c-1.196-0.622-2.642-0.5-3.729,0.308L34.449,20.006H18.122c-1.931,0-3.751,0.744-5.123,2.081
				c-1.427,1.393-2.217,3.253-2.217,5.248v21.972c0,1.994,0.79,3.86,2.213,5.24c1.376,1.346,3.196,2.089,5.127,2.089h16.327
				L60.18,75.941c0.625,0.465,1.365,0.708,2.113,0.708c0.551,0,1.104-0.136,1.615-0.4c1.201-0.622,1.959-1.881,1.959-3.26V3.662
				C65.869,2.282,65.111,1.017,63.91,0.395z M58.719,65.767L37.73,50.016c-0.615-0.458-1.352-0.708-2.113-0.708H17.931V38.324
				l0.19-10.989h17.495c0.762,0,1.498-0.25,2.113-0.708l20.989-15.744v54.883H58.719z"/>
		</g>
	</g>
</g>
<g>
</g>
<g>
</g>
<g>
</g>
<g>
</g>
<g>
</g>
<g>
</g>
<g>
</g>
<g>
</g>
<g>
</g>
<g>
</g>
<g>
</g>
<g>
</g>
<g>
</g>
<g>
</g>
<g>
</g>
</svg>
