<?xml version="1.0" encoding="iso-8859-1"?>
<!-- Generator: Adobe Illustrator 16.0.0, SVG Export Plug-In . SVG Version: 6.00 Build 0)  -->
<!DOCTYPE svg PUBLIC "-//W3C//DTD SVG 1.1//EN" "http://www.w3.org/Graphics/SVG/1.1/DTD/svg11.dtd">
<svg version="1.1" id="Capa_1" xmlns="http://www.w3.org/2000/svg" xmlns:xlink="http://www.w3.org/1999/xlink" x="0px" y="0px"
	 width="84.312px" height="84.313px" viewBox="0 0 84.312 84.313" style="enable-background:new 0 0 84.312 84.313;"
	 xml:space="preserve">
<g>
	<g id="Volume_On_1_">
		<g>
			<path d="M53.559,4.227c-1.213-0.622-2.668-0.508-3.762,0.314l-25.94,19.306H7.397c-1.938,0-3.775,0.736-5.173,2.08
				C0.791,27.322,0,29.182,0,31.169v21.979c0,1.987,0.791,3.846,2.231,5.24c1.391,1.344,3.228,2.081,5.166,2.081h16.459
				l25.94,19.305c0.629,0.465,1.38,0.708,2.131,0.708c0.554,0,1.115-0.136,1.63-0.4c1.209-0.622,1.975-1.881,1.975-3.26V7.495
				C55.531,6.115,54.766,4.85,53.559,4.227z M48.324,69.6L27.163,53.855c-0.618-0.465-1.362-0.707-2.127-0.707H7.208v-10.99
				l0.189-10.989h17.639c0.765,0,1.509-0.243,2.127-0.708l21.161-15.744V69.6z M62.695,60.47h7.207V23.848h-7.207V60.47z
				 M77.109,16.519v51.279h7.203V16.519H77.109z"/>
		</g>
	</g>
</g>
<g>
</g>
<g>
</g>
<g>
</g>
<g>
</g>
<g>
</g>
<g>
</g>
<g>
</g>
<g>
</g>
<g>
</g>
<g>
</g>
<g>
</g>
<g>
</g>
<g>
</g>
<g>
</g>
<g>
</g>
</svg>
