<?xml version="1.0" encoding="iso-8859-1"?>
<!-- Generator: Adobe Illustrator 16.0.0, SVG Export Plug-In . SVG Version: 6.00 Build 0)  -->
<!DOCTYPE svg PUBLIC "-//W3C//DTD SVG 1.1//EN" "http://www.w3.org/Graphics/SVG/1.1/DTD/svg11.dtd">
<svg version="1.1" id="Capa_1" xmlns="http://www.w3.org/2000/svg" xmlns:xlink="http://www.w3.org/1999/xlink" x="0px" y="0px"
	 width="91.628px" height="91.628px" viewBox="0 0 91.628 91.628" style="enable-background:new 0 0 91.628 91.628;"
	 xml:space="preserve">
<g>
	<g id="Bag_1_">
		<g>
			<path d="M78.568,15.924h-14.45V3.604C64.118,1.609,62.476,0,60.457,0H31.17c-2.023,0-3.661,1.609-3.661,3.604v12.32H13.06
				c-4.144,0-7.515,3.231-7.515,7.207V84.42c0,3.977,3.371,7.208,7.515,7.208h65.508c4.144,0,7.516-3.231,7.516-7.208V23.131
				C86.083,19.155,82.71,15.924,78.568,15.924z M34.832,7.208h21.965v8.716H34.832V7.208z M78.568,84.42H12.866l0.192-61.289h14.45
				v13.998c-2.188,1.247-3.66,3.57-3.66,6.243c0,3.983,3.274,7.208,7.321,7.208s7.321-3.225,7.321-7.208
				c0-2.673-1.474-4.996-3.66-6.243V23.131h21.965v13.998c-2.188,1.247-3.661,3.57-3.661,6.243c0,3.983,3.273,7.208,7.321,7.208
				c4.047,0,7.321-3.225,7.321-7.208c0-2.673-1.475-4.996-3.66-6.243V23.131H78.76l0.019,61.211
				C78.779,84.35,78.721,84.42,78.568,84.42z"/>
		</g>
	</g>
</g>
<g>
</g>
<g>
</g>
<g>
</g>
<g>
</g>
<g>
</g>
<g>
</g>
<g>
</g>
<g>
</g>
<g>
</g>
<g>
</g>
<g>
</g>
<g>
</g>
<g>
</g>
<g>
</g>
<g>
</g>
</svg>
