<?xml version="1.0" encoding="iso-8859-1"?>
<!-- Generator: Adobe Illustrator 16.0.0, SVG Export Plug-In . SVG Version: 6.00 Build 0)  -->
<!DOCTYPE svg PUBLIC "-//W3C//DTD SVG 1.1//EN" "http://www.w3.org/Graphics/SVG/1.1/DTD/svg11.dtd">
<svg version="1.1" id="Capa_1" xmlns="http://www.w3.org/2000/svg" xmlns:xlink="http://www.w3.org/1999/xlink" x="0px" y="0px"
	 width="91.477px" height="91.477px" viewBox="0 0 91.477 91.477" style="enable-background:new 0 0 91.477 91.477;"
	 xml:space="preserve">
<g>
	<g id="Mobile_1_">
		<g>
			<path d="M67.703,0h-43.93c-4.04,0-7.321,3.304-7.321,7.372v76.733c0,4.067,3.281,7.371,7.321,7.371h43.93
				c4.036,0,7.321-3.304,7.321-7.371V7.372C75.024,3.304,71.739,0,67.703,0z M42.077,80.295c0-2.038,1.638-3.689,3.661-3.689
				c2.022,0,3.661,1.651,3.661,3.689c0,2.03-1.639,3.682-3.661,3.682C43.715,83.977,42.077,82.325,42.077,80.295z M23.773,69.72
				V14.736h43.93l0.002,54.983L23.773,69.72L23.773,69.72z"/>
		</g>
	</g>
</g>
<g>
</g>
<g>
</g>
<g>
</g>
<g>
</g>
<g>
</g>
<g>
</g>
<g>
</g>
<g>
</g>
<g>
</g>
<g>
</g>
<g>
</g>
<g>
</g>
<g>
</g>
<g>
</g>
<g>
</g>
</svg>
