<?xml version="1.0" encoding="iso-8859-1"?>
<!-- Generator: Adobe Illustrator 16.0.0, SVG Export Plug-In . SVG Version: 6.00 Build 0)  -->
<!DOCTYPE svg PUBLIC "-//W3C//DTD SVG 1.1//EN" "http://www.w3.org/Graphics/SVG/1.1/DTD/svg11.dtd">
<svg version="1.1" id="Capa_1" xmlns="http://www.w3.org/2000/svg" xmlns:xlink="http://www.w3.org/1999/xlink" x="0px" y="0px"
	 width="87.889px" height="87.889px" viewBox="0 0 87.889 87.889" style="enable-background:new 0 0 87.889 87.889;"
	 xml:space="preserve">
<g>
	<g id="Document_2_">
		<g>
			<path d="M51.4,18.44H18.368v7.286H51.4V18.44z M18.368,40.298h51.383v-7.286H18.368V40.298z M18.368,54.877h51.383v-7.286H18.368
				V54.877z M18.368,69.448h51.383v-7.286H18.368V69.448z M83.128,10.933l-9.938-9.866C72.499,0.379,71.566,0,70.595,0H11.027
				c-4.05,0-7.343,3.268-7.343,7.286v73.315c0,4.02,3.293,7.287,7.343,7.287H76.86c4.051,0,7.344-3.269,7.344-7.287V13.507
				C84.204,12.541,83.818,11.612,83.128,10.933z M11.027,80.604V7.286H58.4v14.801c0,2.009,1.646,3.64,3.671,3.64h14.791
				l0.006,54.876H11.027z"/>
		</g>
	</g>
</g>
<g>
</g>
<g>
</g>
<g>
</g>
<g>
</g>
<g>
</g>
<g>
</g>
<g>
</g>
<g>
</g>
<g>
</g>
<g>
</g>
<g>
</g>
<g>
</g>
<g>
</g>
<g>
</g>
<g>
</g>
</svg>
