<?xml version="1.0" encoding="iso-8859-1"?>
<!-- Generator: Adobe Illustrator 16.0.0, SVG Export Plug-In . SVG Version: 6.00 Build 0)  -->
<!DOCTYPE svg PUBLIC "-//W3C//DTD SVG 1.1//EN" "http://www.w3.org/Graphics/SVG/1.1/DTD/svg11.dtd">
<svg version="1.1" id="Capa_1" xmlns="http://www.w3.org/2000/svg" xmlns:xlink="http://www.w3.org/1999/xlink" x="0px" y="0px"
	 width="84.192px" height="84.191px" viewBox="0 0 84.192 84.191" style="enable-background:new 0 0 84.192 84.191;"
	 xml:space="preserve">
<g>
	<g id="Share">
		<g>
			<path d="M38.435,65.873h7.322V16.487h10.981L42.097,0L27.453,16.487h10.982V65.873z M81.743,37.294
				c-0.395-0.872-0.951-1.658-1.645-2.309c-0.681-0.658-1.48-1.166-2.377-1.538c-0.912-0.364-1.877-0.55-2.871-0.55H58.473v7.328
				h16.569v34.807l-0.192,1.829H9.148V53.046l0.192-12.82h16.378v-7.328H9.342c-0.993,0-1.959,0.186-2.881,0.557
				c-0.891,0.365-1.685,0.873-2.356,1.517c-0.704,0.665-1.262,1.451-1.666,2.353c-0.405,0.92-0.612,1.893-0.612,2.901v36.637
				c0,1.008,0.207,1.979,0.622,2.924c0.394,0.88,0.951,1.666,1.642,2.316c0.686,0.657,1.479,1.166,2.381,1.53
				c0.911,0.371,1.877,0.558,2.87,0.558H74.85c0.994,0,1.959-0.187,2.881-0.558c0.888-0.364,1.688-0.873,2.357-1.517
				c0.703-0.665,1.262-1.451,1.665-2.354c0.404-0.922,0.611-1.895,0.611-2.902V40.226C82.365,39.218,82.158,38.245,81.743,37.294z"
				/>
		</g>
	</g>
</g>
<g>
</g>
<g>
</g>
<g>
</g>
<g>
</g>
<g>
</g>
<g>
</g>
<g>
</g>
<g>
</g>
<g>
</g>
<g>
</g>
<g>
</g>
<g>
</g>
<g>
</g>
<g>
</g>
<g>
</g>
</svg>
