<?xml version="1.0" encoding="iso-8859-1"?>
<!-- Generator: Adobe Illustrator 16.0.0, SVG Export Plug-In . SVG Version: 6.00 Build 0)  -->
<!DOCTYPE svg PUBLIC "-//W3C//DTD SVG 1.1//EN" "http://www.w3.org/Graphics/SVG/1.1/DTD/svg11.dtd">
<svg version="1.1" id="Capa_1" xmlns="http://www.w3.org/2000/svg" xmlns:xlink="http://www.w3.org/1999/xlink" x="0px" y="0px"
	 width="76.848px" height="76.848px" viewBox="0 0 76.848 76.848" style="enable-background:new 0 0 76.848 76.848;"
	 xml:space="preserve">
<g>
	<g id="User_1_">
		<g>
			<path d="M55.201,41.091c4.611-4.349,7.49-10.46,7.49-17.225C62.691,10.703,51.805,0,38.422,0
				C25.037,0,14.147,10.703,14.147,23.866c0,6.767,2.882,12.88,7.496,17.229c-4.692,4.091-10.602,13.021-10.602,32.085
				c0,2.031,1.67,3.668,3.736,3.668h23.645v-7.344H18.595c0.779-16.955,6.931-22.469,9.495-24.04
				c3.138,1.457,6.639,2.276,10.332,2.276c3.694,0,7.196-0.819,10.334-2.278c2.562,1.569,8.719,7.08,9.5,24.042H38.429v7.344h23.646
				c2.062,0,3.731-1.637,3.731-3.668C65.807,54.109,59.895,45.18,55.201,41.091z M21.616,23.866c0-9.109,7.539-16.523,16.806-16.523
				c9.268,0,16.803,7.414,16.803,16.523c0,9.116-7.535,16.522-16.803,16.522C29.155,40.389,21.616,32.982,21.616,23.866z"/>
		</g>
	</g>
</g>
<g>
</g>
<g>
</g>
<g>
</g>
<g>
</g>
<g>
</g>
<g>
</g>
<g>
</g>
<g>
</g>
<g>
</g>
<g>
</g>
<g>
</g>
<g>
</g>
<g>
</g>
<g>
</g>
<g>
</g>
</svg>
