<?xml version="1.0" encoding="UTF-8" standalone="no"?>
<!-- Generator: Adobe Illustrator 19.0.0, SVG Export Plug-In . SVG Version: 6.00 Build 0)  -->

<svg
   xmlns:dc="http://purl.org/dc/elements/1.1/"
   xmlns:cc="http://creativecommons.org/ns#"
   xmlns:rdf="http://www.w3.org/1999/02/22-rdf-syntax-ns#"
   xmlns:svg="http://www.w3.org/2000/svg"
   xmlns="http://www.w3.org/2000/svg"
   xmlns:sodipodi="http://sodipodi.sourceforge.net/DTD/sodipodi-0.dtd"
   xmlns:inkscape="http://www.inkscape.org/namespaces/inkscape"
   version="1.1"
   id="Capa_1"
   x="0px"
   y="0px"
   viewBox="0 0 41.999001 41.999001"
   xml:space="preserve"
   inkscape:version="0.91 r13725"
   sodipodi:docname="PauseButtonDefault.svg"
   width="41.999001"
   height="41.999001"><metadata
     id="metadata43"><rdf:RDF><cc:Work
         rdf:about=""><dc:format>image/svg+xml</dc:format><dc:type
           rdf:resource="http://purl.org/dc/dcmitype/StillImage" /><dc:title></dc:title></cc:Work></rdf:RDF></metadata><defs
     id="defs41" /><sodipodi:namedview
     pagecolor="#ffffff"
     bordercolor="#666666"
     borderopacity="1"
     objecttolerance="10"
     gridtolerance="10"
     guidetolerance="10"
     inkscape:pageopacity="0"
     inkscape:pageshadow="2"
     inkscape:window-width="1600"
     inkscape:window-height="837"
     id="namedview39"
     showgrid="false"
     inkscape:zoom="5.3636364"
     inkscape:cx="-9.7881354"
     inkscape:cy="27.792519"
     inkscape:window-x="-8"
     inkscape:window-y="-8"
     inkscape:window-maximized="1"
     inkscape:current-layer="g3"
     units="px" /><g
     id="g3"
     style="fill:#88898c;fill-opacity:1"
     transform="matrix(0.95452273,0,0,0.95452273,0.61394318,0)"><path
       d="m 15.5,0 c -1.103,0 -2,0.897 -2,2 l 0,40 c 0,1.103 0.897,2 2,2 1.103,0 2,-0.897 2,-2 l 0,-40 c 0,-1.103 -0.897,-2 -2,-2 z"
       id="path5"
       style="fill:#88898c;fill-opacity:1"
       inkscape:connector-curvature="0" /><path
       d="m 28.5,0 c -1.103,0 -2,0.897 -2,2 l 0,40 c 0,1.103 0.897,2 2,2 1.103,0 2,-0.897 2,-2 l 0,-40 c 0,-1.103 -0.897,-2 -2,-2 z"
       id="path7"
       style="fill:#88898c;fill-opacity:1"
       inkscape:connector-curvature="0" /></g><g
     id="g9"
     transform="translate(0,-2.001)" /><g
     id="g11"
     transform="translate(0,-2.001)" /><g
     id="g13"
     transform="translate(0,-2.001)" /><g
     id="g15"
     transform="translate(0,-2.001)" /><g
     id="g17"
     transform="translate(0,-2.001)" /><g
     id="g19"
     transform="translate(0,-2.001)" /><g
     id="g21"
     transform="translate(0,-2.001)" /><g
     id="g23"
     transform="translate(0,-2.001)" /><g
     id="g25"
     transform="translate(0,-2.001)" /><g
     id="g27"
     transform="translate(0,-2.001)" /><g
     id="g29"
     transform="translate(0,-2.001)" /><g
     id="g31"
     transform="translate(0,-2.001)" /><g
     id="g33"
     transform="translate(0,-2.001)" /><g
     id="g35"
     transform="translate(0,-2.001)" /><g
     id="g37"
     transform="translate(0,-2.001)" /></svg>