<?xml version="1.0" encoding="UTF-8" standalone="no"?>
<!-- Created with Inkscape (http://www.inkscape.org/) -->

<svg
   xmlns:dc="http://purl.org/dc/elements/1.1/"
   xmlns:cc="http://creativecommons.org/ns#"
   xmlns:rdf="http://www.w3.org/1999/02/22-rdf-syntax-ns#"
   xmlns:svg="http://www.w3.org/2000/svg"
   xmlns="http://www.w3.org/2000/svg"
   xmlns:sodipodi="http://sodipodi.sourceforge.net/DTD/sodipodi-0.dtd"
   xmlns:inkscape="http://www.inkscape.org/namespaces/inkscape"
   width="500mm"
   height="500mm"
   viewBox="0 0 1771.6535 1771.6535"
   id="svg2"
   version="1.1"
   inkscape:version="0.91 r13725"
   sodipodi:docname="MenuDisabledPressed.svg">
  <defs
     id="defs4">
    <pattern
       y="0"
       x="0"
       height="6"
       width="6"
       patternUnits="userSpaceOnUse"
       id="EMFhbasepattern" />
  </defs>
  <sodipodi:namedview
     id="base"
     pagecolor="#e73029"
     bordercolor="#666666"
     borderopacity="1.0"
     inkscape:pageopacity="1"
     inkscape:pageshadow="2"
     inkscape:zoom="0.35"
     inkscape:cx="96.457793"
     inkscape:cy="862.85714"
     inkscape:document-units="px"
     inkscape:current-layer="layer1"
     showgrid="false"
     showguides="false"
     inkscape:window-width="1600"
     inkscape:window-height="837"
     inkscape:window-x="-8"
     inkscape:window-y="-8"
     inkscape:window-maximized="1" />
  <metadata
     id="metadata7">
    <rdf:RDF>
      <cc:Work
         rdf:about="">
        <dc:format>image/svg+xml</dc:format>
        <dc:type
           rdf:resource="http://purl.org/dc/dcmitype/StillImage" />
        <dc:title></dc:title>
      </cc:Work>
    </rdf:RDF>
  </metadata>
  <g
     inkscape:label="Layer 1"
     inkscape:groupmode="layer"
     id="layer1"
     transform="translate(0,719.26693)">
    <path
       inkscape:connector-curvature="0"
       id="path4149"
       d="m 1250.8318,166.55823 c 0,-201.599942 -163.4037,-365.00597 -365.00675,-365.00597 -201.59992,0 -364.94969,163.406028 -364.94969,365.00597 0,201.60305 163.34977,365.00676 364.94969,365.00676 201.60305,0 365.00675,-163.40371 365.00675,-365.00676 z"
       style="fill:#c8c8c8;fill-opacity:1;fill-rule:nonzero;stroke:none" />
    <path
       inkscape:connector-curvature="0"
       id="path4151"
       d="m 221.45667,166.55823 c 0,366.35676 298.01244,664.37151 664.36838,664.37151 39.7128,0 71.94431,-32.2352 71.94431,-71.94807 0,-39.71275 -32.23151,-71.94049 -71.94431,-71.94049 -286.98734,0 -520.48059,-233.49175 -520.48059,-520.48295 0,-286.98737 233.49325,-520.48061 520.48059,-520.48061 286.99105,0 520.48285,233.49324 520.48285,520.48061 0,39.71285 32.2278,71.94435 71.9407,71.94435 39.7128,0 71.9481,-32.2315 71.9481,-71.94435 0,-366.35597 -298.0149,-664.36849 -664.37165,-664.36849 -366.35594,0 -664.36838,298.01252 -664.36838,664.36849 z"
       style="fill:#c8c8c8;fill-opacity:1;fill-rule:nonzero;stroke:none" />
  </g>
</svg>
