<?xml version="1.0" encoding="UTF-8" standalone="no"?>
<!-- Generator: Adobe Illustrator 16.0.0, SVG Export Plug-In . SVG Version: 6.00 Build 0)  -->

<svg
   xmlns:dc="http://purl.org/dc/elements/1.1/"
   xmlns:cc="http://creativecommons.org/ns#"
   xmlns:rdf="http://www.w3.org/1999/02/22-rdf-syntax-ns#"
   xmlns:svg="http://www.w3.org/2000/svg"
   xmlns="http://www.w3.org/2000/svg"
   xmlns:sodipodi="http://sodipodi.sourceforge.net/DTD/sodipodi-0.dtd"
   xmlns:inkscape="http://www.inkscape.org/namespaces/inkscape"
   version="1.1"
   id="Capa_1"
   x="0px"
   y="0px"
   width="50mm"
   height="50mm"
   viewBox="0 0 177.16537 177.16536"
   xml:space="preserve"
   inkscape:version="0.91 r13725"
   sodipodi:docname="RefreshDisabledPressed.svg"><metadata
     id="metadata44"><rdf:RDF><cc:Work
         rdf:about=""><dc:format>image/svg+xml</dc:format><dc:type
           rdf:resource="http://purl.org/dc/dcmitype/StillImage" /><dc:title /></cc:Work></rdf:RDF></metadata><defs
     id="defs42" /><sodipodi:namedview
     pagecolor="#e73029"
     bordercolor="#666666"
     borderopacity="1"
     objecttolerance="10"
     gridtolerance="10"
     guidetolerance="10"
     inkscape:pageopacity="1"
     inkscape:pageshadow="2"
     inkscape:window-width="1600"
     inkscape:window-height="837"
     id="namedview40"
     showgrid="false"
     units="mm"
     inkscape:zoom="0.91169803"
     inkscape:cx="-4.959216"
     inkscape:cy="110.51845"
     inkscape:window-x="-8"
     inkscape:window-y="-8"
     inkscape:window-maximized="1"
     inkscape:current-layer="Capa_1" /><g
     id="g3"
     transform="matrix(1.4518578,0,0,1.4518578,22.145961,22.145661)"
     style="fill:#c8c8c8;fill-opacity:1"><g
       id="Reload_1_"
       style="fill:#c8c8c8;fill-opacity:1"><g
         id="g6"
         style="fill:#c8c8c8;fill-opacity:1"><path
           d="m 78.707,51.251 c 0,18.168 -14.778,32.947 -32.947,32.947 -18.165,0 -32.947,-14.779 -32.947,-32.947 0,-17.815 14.228,-32.373 31.917,-32.921 l 0,10.964 L 61.205,14.644 44.729,0 l 0,11.016 C 23,11.565 5.491,29.396 5.491,51.251 c 0,22.208 18.064,40.269 40.269,40.269 22.206,0 40.269,-18.061 40.269,-40.269 l -7.322,0 z"
           id="path8"
           inkscape:connector-curvature="0"
           style="fill:#c8c8c8;fill-opacity:1" /></g></g></g><g
     id="g10"
     transform="translate(0,85.645357)" /><g
     id="g12"
     transform="translate(0,85.645357)" /><g
     id="g14"
     transform="translate(0,85.645357)" /><g
     id="g16"
     transform="translate(0,85.645357)" /><g
     id="g18"
     transform="translate(0,85.645357)" /><g
     id="g20"
     transform="translate(0,85.645357)" /><g
     id="g22"
     transform="translate(0,85.645357)" /><g
     id="g24"
     transform="translate(0,85.645357)" /><g
     id="g26"
     transform="translate(0,85.645357)" /><g
     id="g28"
     transform="translate(0,85.645357)" /><g
     id="g30"
     transform="translate(0,85.645357)" /><g
     id="g32"
     transform="translate(0,85.645357)" /><g
     id="g34"
     transform="translate(0,85.645357)" /><g
     id="g36"
     transform="translate(0,85.645357)" /><g
     id="g38"
     transform="translate(0,85.645357)" /></svg>