<?xml version="1.0" encoding="UTF-8" standalone="no"?>
<!-- Generator: Adobe Illustrator 16.0.0, SVG Export Plug-In . SVG Version: 6.00 Build 0)  -->

<svg
   xmlns:dc="http://purl.org/dc/elements/1.1/"
   xmlns:cc="http://creativecommons.org/ns#"
   xmlns:rdf="http://www.w3.org/1999/02/22-rdf-syntax-ns#"
   xmlns:svg="http://www.w3.org/2000/svg"
   xmlns="http://www.w3.org/2000/svg"
   xmlns:sodipodi="http://sodipodi.sourceforge.net/DTD/sodipodi-0.dtd"
   xmlns:inkscape="http://www.inkscape.org/namespaces/inkscape"
   version="1.1"
   id="Capa_1"
   x="0px"
   y="0px"
   width="50mm"
   height="50mm"
   viewBox="0 0 177.16536 177.16536"
   xml:space="preserve"
   inkscape:version="0.91 r13725"
   sodipodi:docname="SearchEnabled.svg"><metadata
     id="metadata44"><rdf:RDF><cc:Work
         rdf:about=""><dc:format>image/svg+xml</dc:format><dc:type
           rdf:resource="http://purl.org/dc/dcmitype/StillImage" /><dc:title /></cc:Work></rdf:RDF></metadata><defs
     id="defs42" /><sodipodi:namedview
     pagecolor="#e73029"
     bordercolor="#666666"
     borderopacity="1"
     objecttolerance="10"
     gridtolerance="10"
     guidetolerance="10"
     inkscape:pageopacity="1"
     inkscape:pageshadow="2"
     inkscape:window-width="1600"
     inkscape:window-height="837"
     id="namedview40"
     showgrid="false"
     units="mm"
     inkscape:zoom="2.9316042"
     inkscape:cx="-17.908285"
     inkscape:cy="94.828626"
     inkscape:window-x="-8"
     inkscape:window-y="-8"
     inkscape:window-maximized="1"
     inkscape:current-layer="g3" /><g
     id="g3"
     transform="matrix(2.2007572,0,0,2.2007572,0,6.3546796e-4)"><g
       id="Zoom_1_"
       transform="matrix(0.74999999,0,0,0.74999999,13.68534,10.063081)"
       style="fill:#ffffff;fill-opacity:1"><g
         id="g6"
         style="fill:#ffffff;fill-opacity:1"><path
           d="M 80.502,74.658 58.688,52.742 C 62.881,47.218 65.379,40.326 65.379,32.857 65.379,14.753 50.715,0.017 32.689,0.017 14.663,0.017 0,14.753 0,32.857 c 0,18.111 14.664,32.848 32.689,32.848 7.643,0 14.674,-2.655 20.247,-7.088 l 21.768,21.867 5.798,-5.826 z M 32.689,58.312 C 18.722,58.312 7.357,46.893 7.357,32.857 7.357,18.83 18.722,7.411 32.689,7.411 46.657,7.411 58.022,18.83 58.022,32.857 58.021,46.894 46.657,58.312 32.689,58.312 Z"
           id="path8"
           inkscape:connector-curvature="0"
           style="fill:#ffffff;fill-opacity:1" /></g></g></g><g
     id="g10"
     transform="translate(0,96.663359)" /><g
     id="g12"
     transform="translate(0,96.663359)" /><g
     id="g14"
     transform="translate(0,96.663359)" /><g
     id="g16"
     transform="translate(0,96.663359)" /><g
     id="g18"
     transform="translate(0,96.663359)" /><g
     id="g20"
     transform="translate(0,96.663359)" /><g
     id="g22"
     transform="translate(0,96.663359)" /><g
     id="g24"
     transform="translate(0,96.663359)" /><g
     id="g26"
     transform="translate(0,96.663359)" /><g
     id="g28"
     transform="translate(0,96.663359)" /><g
     id="g30"
     transform="translate(0,96.663359)" /><g
     id="g32"
     transform="translate(0,96.663359)" /><g
     id="g34"
     transform="translate(0,96.663359)" /><g
     id="g36"
     transform="translate(0,96.663359)" /><g
     id="g38"
     transform="translate(0,96.663359)" /></svg>