<?xml version="1.0" encoding="UTF-8" standalone="no"?>
<!-- Created with Inkscape (http://www.inkscape.org/) -->

<svg
   xmlns:dc="http://purl.org/dc/elements/1.1/"
   xmlns:cc="http://creativecommons.org/ns#"
   xmlns:rdf="http://www.w3.org/1999/02/22-rdf-syntax-ns#"
   xmlns:svg="http://www.w3.org/2000/svg"
   xmlns="http://www.w3.org/2000/svg"
   xmlns:sodipodi="http://sodipodi.sourceforge.net/DTD/sodipodi-0.dtd"
   xmlns:inkscape="http://www.inkscape.org/namespaces/inkscape"
   width="169.765mm"
   height="127mm"
   viewBox="0 0 601.52951 450"
   id="svg4295"
   version="1.1"
   inkscape:version="0.91 r13725"
   sodipodi:docname="SplashScreen.svg">
  <defs
     id="defs4297" />
  <sodipodi:namedview
     id="base"
     pagecolor="#ffffff"
     bordercolor="#666666"
     borderopacity="1.0"
     inkscape:pageopacity="1"
     inkscape:pageshadow="2"
     inkscape:zoom="0.35"
     inkscape:cx="-599.28572"
     inkscape:cy="520"
     inkscape:document-units="px"
     inkscape:current-layer="layer1"
     showgrid="false"
     inkscape:window-width="1600"
     inkscape:window-height="837"
     inkscape:window-x="-8"
     inkscape:window-y="-8"
     inkscape:window-maximized="1" />
  <metadata
     id="metadata4300">
    <rdf:RDF>
      <cc:Work
         rdf:about="">
        <dc:format>image/svg+xml</dc:format>
        <dc:type
           rdf:resource="http://purl.org/dc/dcmitype/StillImage" />
        <dc:title />
      </cc:Work>
    </rdf:RDF>
  </metadata>
  <g
     inkscape:label="Layer 1"
     inkscape:groupmode="layer"
     id="layer1"
     transform="translate(0,-602.3622)">
    <g
       transform="matrix(0.90795953,0,0,-0.90796159,378.51921,743.89889)"
       id="g4154"
       style="fill:#ed1c24;fill-opacity:1">
      <path
         inkscape:connector-curvature="0"
         id="path4156"
         style="fill:#ed1c24;fill-opacity:1;fill-rule:nonzero;stroke:none"
         d="m 0,0 c 0,47.296 -38.341,85.637 -85.637,85.637 -47.296,0 -85.636,-38.341 -85.636,-85.637 0,-47.296 38.34,-85.637 85.636,-85.637 C -38.341,-85.637 0,-47.296 0,0" />
    </g>
    <g
       transform="matrix(0.90795953,0,0,-0.90796159,159.22836,743.89889)"
       id="g4158"
       style="fill:#ed1c24;fill-opacity:1">
      <path
         inkscape:connector-curvature="0"
         id="path4160"
         style="fill:#ed1c24;fill-opacity:1;fill-rule:nonzero;stroke:none"
         d="m 0,0 c 0,-85.955 69.929,-155.884 155.884,-155.884 9.322,0 16.879,7.557 16.879,16.88 0,9.321 -7.557,16.879 -16.879,16.879 -67.34,0 -122.126,54.785 -122.126,122.125 0,67.34 54.786,122.125 122.126,122.125 67.34,0 122.125,-54.785 122.125,-122.125 0,-9.322 7.557,-16.879 16.88,-16.879 9.321,0 16.879,7.557 16.879,16.879 0,85.955 -69.93,155.884 -155.884,155.884 C 69.929,155.884 0,85.955 0,0" />
    </g>
    <text
       xml:space="preserve"
       style="font-style:normal;font-weight:normal;font-size:101.41241455px;line-height:125%;font-family:sans-serif;text-align:center;letter-spacing:0px;word-spacing:0px;text-anchor:middle;fill:#ed1c24;fill-opacity:1;stroke:none;stroke-width:1px;stroke-linecap:butt;stroke-linejoin:miter;stroke-opacity:1"
       x="299.4061"
       y="959.91418"
       id="text5933"
       sodipodi:linespacing="125%"
       transform="scale(0.99999886,1.0000011)"><tspan
         sodipodi:role="line"
         x="299.40607"
         y="959.91418"
         style="font-style:normal;font-variant:normal;font-weight:900;font-stretch:normal;font-size:73.24228668px;font-family:'Arial Black';-inkscape-font-specification:'Arial Black, Heavy';text-align:center;text-anchor:middle;fill:#ed1c24;fill-opacity:1"
         id="tspan5937">Project Laguna</tspan><tspan
         sodipodi:role="line"
         x="299.4061"
         y="1051.467"
         style="font-style:normal;font-variant:normal;font-weight:900;font-stretch:normal;font-size:73.24228668px;font-family:'Arial Black';-inkscape-font-specification:'Arial Black, Heavy';text-align:center;text-anchor:middle;fill:#ed1c24;fill-opacity:1"
         id="tspan5949">Beta 1</tspan></text>
  </g>
</svg>
